# xmcd
#
# Track frame offsets:
#	150
#	15130
#	31992
#	49374
#	70474
#	84650
#	101910
#	126014
#	142005
#	157383
#	180820
#	198041
#	215446
#	237113
#	254449
#
# Disc length: 3637
#
# Revision: 1
# Processed by: cddbd v1.5.1PL0 Copyright (c) Steve Scherf et al.
# Submitted via: EasyCDDAExtractor 4.6.9.1
# Normalized: r0:TDELIM( - )
#
DISCID=cf0e330f
DTITLE=Various Artist - CMT Most Wanted - Vol.3
DYEAR=2003
DGENRE=
TTITLE0=Mark Wills - 19 Somethin'
TTITLE1=Jennifer Hanson - Beautiful Goodbye
TTITLE2=Joe Nichols - Brokenheartsville
TTITLE3=Jo Dee Messina - Burn
TTITLE4=Dwight Yoakam - The Back Of Your Hand
TTITLE5=Chris Cagle - What A Beautiful Day
TTITLE6=Cross Canadian Ragweed - 17
TTITLE7=Rhonda Vincnet - You Can't Take It With You When You Go
TTITLE8=Trace Adkins - Chrome
TTITLE9=Montgomery Gentry - Cold One Comin' On
TTITLE10=Alison Krass - Maybe
TTITLE11=Dierks Bently - What Was I Thinkin'
TTITLE12=LeAnn Rimes - I Need You
TTITLE13=Keith Urban - Raining On Sunday
TTITLE14=Rascal Flatts - I'm Movin' On
EXTD=
EXTT0=
EXTT1=
EXTT2=
EXTT3=
EXTT4=
EXTT5=
EXTT6=
EXTT7=
EXTT8=
EXTT9=
EXTT10=
EXTT11=
EXTT12=
EXTT13=
EXTT14=
PLAYORDER=
